<svg version="1.1" id="Layer_1" xmlns="http://www.w3.org/2000/svg" x="0" y="0" viewBox="0 0 512.002 512.002" xml:space="preserve"><path d="M88.535 487.696c-11.558-11.558-19.299-25.987-22.545-41.683-15.697-3.246-30.125-10.986-41.684-22.545-32.405-32.404-32.41-84.856 0-117.264 28.665-28.666 73.268-31.915 105.546-9.749l166.591-166.591c-21.883-31.749-19.403-76.395 9.759-105.557 32.405-32.405 84.857-32.41 117.264 0 11.56 11.558 19.299 25.986 22.545 41.683 15.698 3.246 30.125 10.986 41.684 22.545 32.405 32.404 32.41 84.856 0 117.264-28.664 28.666-73.267 31.918-105.546 9.749L215.548 382.15c22.168 32.279 18.918 76.881-9.749 105.546-32.403 32.405-84.855 32.41-117.264 0z" fill="#fae8ac"/><path d="M215.548 382.15L382.15 215.548c32.28 22.169 76.882 18.918 105.546-9.749 32.41-32.408 32.406-84.861 0-117.264-11.558-11.56-25.986-19.3-41.684-22.545L65.991 446.012c3.246 15.697 10.986 30.125 22.545 41.683 32.407 32.411 84.859 32.405 117.264 0 28.666-28.664 31.916-73.267 9.748-105.545z" fill="#f6d86e"/></svg>