<svg version="1.1" id="Capa_1" xmlns="http://www.w3.org/2000/svg" x="0" y="0" viewBox="0 0 155.301 155.301" xml:space="preserve"><circle cx="77.651" cy="77.65" r="77.65" fill="#98e2ed"/><path d="M114.184 103.587c-6.647-1.446-9.087 5.202-16.717-3.592-.656 1.75-2.469 3.397-2.469 4.91v1.379c4 3.651 7.841 7.784 12.523 7.899 10.121.25 13.485-9.112 6.663-10.596z" fill="#fff"/><path d="M59.548 37.681c-2.071-1.712-4.399-3.332-5.75-3.282-1.371.051-2.769 5.978-2.399 10.028a31.974 31.974 0 018.149-6.746zm40.639 7.425c.614-4.027-.865-10.653-2.316-10.708-1.411-.053-3.886 1.715-6.021 3.506a32.082 32.082 0 018.337 7.202z" fill="#ffb1a5"/><path d="M97.467 99.996c.927-2.47 1.385-5.144 1.385-7.938 0-1.561-.185-3.086-.486-4.558-5.791 5.948-13.893 9.647-22.85 9.647a31.767 31.767 0 01-21.648-8.481c-.167 1.107.071 2.239.071 3.392 0 5.212 2.06 10.008 5.06 13.83v17.786c0 2.036.992 4.52 3.028 4.52h3.63c2.036 0 4.342-2.484 4.342-4.52v-10.083c1 .689 4.247 1.063 6.639 1.063 2.66 0 4.361-.464 7.361-1.308v10.327c0 2.036 1.436 4.52 3.472 4.52h3.631c2.036 0 3.897-2.484 3.897-4.52v-18.769c-.001-1.511 1.812-3.158 2.468-4.908z" fill="#fbfbfb"/><path d="M98.339 87.499c.441-.454.868-.922 1.283-1.401 5.396.528 9.87 2.542 13.747 6.543.349.36.926-.169.65-.568-2.976-4.305-8.59-6.754-13.83-6.64a31.911 31.911 0 003.029-4.424c2.668.024 5.302.312 7.973.963.35.085.542-.477.2-.607-2.521-.952-5.092-1.296-7.688-1.237a31.727 31.727 0 002.367-5.819 24.589 24.589 0 018.19-.108c.605.091.722-.729.17-.909-2.65-.857-5.35-.866-7.987-.348.608-2.459.936-5.028.936-7.675a31.733 31.733 0 00-3.607-14.724c3.239-6.769-.641-25.745-6.011-22.869-3.258 1.743-7.145 5.375-9.907 8.2a31.781 31.781 0 00-12.352-2.482 31.77 31.77 0 00-11.874 2.294c-2.749-2.796-6.535-6.308-9.721-8.012-5.196-2.783-8.997 14.895-6.304 22.175a31.722 31.722 0 00-3.976 15.417c0 2.568.312 5.063.886 7.455-2.188-.264-4.405-.139-6.586.568-.553.179-.436 1 .168.909a24.741 24.741 0 016.779-.108 31.6 31.6 0 002.43 6.039c-2.138.073-4.256.446-6.34 1.233-.342.13-.15.692.2.607a34.065 34.065 0 016.646-.925 31.955 31.955 0 003.024 4.408c-4.836.289-9.773 2.675-12.498 6.617-.276.399.302.928.65.568 3.58-3.695 7.671-5.693 12.526-6.393a32.062 32.062 0 002.347 2.417c5.685 5.262 13.287 8.481 21.643 8.481 8.958.002 17.046-3.697 22.837-9.645zm-.468-53.1c1.451.055 2.93 6.68 2.316 10.708a32.024 32.024 0 00-8.337-7.201c2.135-1.792 4.61-3.56 6.021-3.507zM85.694 56.184a5.65 5.65 0 11-5.103 6.146 5.647 5.647 0 015.103-6.146zm-15.373 6.147a5.65 5.65 0 11-11.252-1.04 5.652 5.652 0 016.149-5.106 5.646 5.646 0 015.103 6.146zM53.797 34.399c1.351-.05 3.68 1.569 5.75 3.282a32.014 32.014 0 00-8.15 6.747c-.369-4.051 1.029-9.978 2.4-10.029zM69.53 87.94c0-.333.034-.687.086-1.048-1.17.408-2.448.637-3.79.637-5.536 0-10.025-3.83-10.025-8.553 0-.386.041-.763.098-1.136.28-.021.473-.396.174-.582l-.059-.036c.948-3.883 4.98-6.8 9.812-6.8 1.447 0 2.818.267 4.06.737 1.052-.977 2.855-1.64 5.618-1.64 2.762 0 4.564.663 5.615 1.639a11.46 11.46 0 014.059-.736c5.538 0 10.026 3.829 10.026 8.555 0 4.724-4.489 8.553-10.026 8.553a11.51 11.51 0 01-3.787-.636c.052.361.086.714.086 1.047a5.975 5.975 0 01-5.975 5.975 5.976 5.976 0 01-5.972-5.976z" fill="#fff"/><path d="M86.735 67.438a5.65 5.65 0 10-1.041-11.254 5.647 5.647 0 00-5.103 6.147 5.649 5.649 0 006.144 5.107zm-1.497-8.808c3.673-1.098 6.054 3.382 4.15 5.644-.592-1.63-2.334-3.007-4.464-2.37-.79.235-1.325.652-1.65 1.161-.711-1.687-.291-3.759 1.964-4.435z" fill="#ebebed"/><path d="M84.925 61.904c2.13-.637 3.872.74 4.464 2.37 1.903-2.262-.478-6.742-4.15-5.644-2.256.676-2.675 2.748-1.964 4.436.324-.509.859-.926 1.65-1.162z" fill="#353a42"/><path d="M59.069 61.29a5.65 5.65 0 1011.252 1.04 5.648 5.648 0 00-5.103-6.147 5.653 5.653 0 00-6.149 5.107zm8.662 1.775c-.325-.509-.86-.926-1.649-1.161-2.13-.637-3.873.74-4.465 2.37-1.903-2.262.477-6.742 4.15-5.644 2.257.676 2.676 2.748 1.964 4.435z" fill="#ebebed"/><path d="M61.617 64.274c.592-1.63 2.334-3.007 4.465-2.37.789.235 1.325.652 1.649 1.161.711-1.688.293-3.76-1.964-4.436-3.673-1.097-6.053 3.383-4.15 5.645z" fill="#353a42"/><path d="M81.478 87.94a7.42 7.42 0 00-.086-1.047c-2.875-1.002-5.075-3.11-5.889-5.704-.814 2.594-3.012 4.701-5.887 5.704a7.3 7.3 0 00-.086 1.048 5.974 5.974 0 1011.948-.001z" fill="#ffb1a5"/><path d="M75.503 81.188c.814 2.594 3.014 4.702 5.889 5.704 1.169.408 2.446.636 3.787.636 5.538 0 10.026-3.83 10.026-8.553 0-4.725-4.489-8.555-10.026-8.555a11.46 11.46 0 00-4.059.736 3.61 3.61 0 011.187 2.706c0 2.242-4.334 6.865-6.802 6.865-2.471 0-6.804-4.623-6.804-6.865 0-.983.363-1.941 1.186-2.706a11.461 11.461 0 00-4.06-.737c-4.832 0-8.864 2.917-9.812 6.8l.059.036c.299.186.106.561-.174.582-.058.373-.098.75-.098 1.136 0 4.724 4.489 8.553 10.025 8.553 1.341 0 2.62-.229 3.79-.637 2.874-.999 5.072-3.107 5.886-5.701z" fill="#ebebed"/><path d="M68.7 73.864c0 2.242 4.334 6.865 6.804 6.865 2.468 0 6.802-4.623 6.802-6.865 0-.984-.363-1.942-1.187-2.706-1.051-.977-2.854-1.639-5.615-1.639-2.763 0-4.566.663-5.618 1.64a3.61 3.61 0 00-1.186 2.705z" fill="#353a42"/><path d="M114.184 103.587c-6.647-1.446-9.193 5.202-16.822-3.592a22.544 22.544 0 001.438-7.938c0-1.561-.159-3.086-.46-4.558.441-.454.868-.922 1.283-1.401 5.396.528 9.87 2.542 13.747 6.543.349.36.926-.169.65-.568-2.976-4.305-8.59-6.754-13.83-6.64a31.911 31.911 0 003.029-4.424c2.668.024 5.302.312 7.973.963.35.085.542-.477.2-.607-2.521-.952-5.092-1.296-7.688-1.237a31.727 31.727 0 002.367-5.819 24.589 24.589 0 018.19-.108c.605.091.722-.729.17-.909-2.65-.857-5.35-.866-7.987-.348.608-2.459.936-5.028.936-7.675a31.733 31.733 0 00-3.607-14.724c3.239-6.769-.641-25.745-6.011-22.869-3.258 1.743-7.145 5.375-9.907 8.2a31.778 31.778 0 00-11.635-2.465v81.24a22.542 22.542 0 007.565-1.307v10.327a3.686 3.686 0 003.686 3.686h3.631a3.686 3.686 0 003.686-3.686v-17.39c3.251 3.651 7.946 7.784 12.629 7.899 10.119.253 13.589-9.109 6.767-10.593z" opacity=".3" fill="#9b9da0"/></svg>