<svg version="1.1" id="Layer_1" xmlns="http://www.w3.org/2000/svg" x="0" y="0" viewBox="0 0 485 485" xml:space="preserve"><path d="M152.5 447.5h180c5.5 0 10 4.5 10 10v20h-200v-20c0-5.5 4.5-10 10-10z" fill="#afb6bb"/><path fill="#e7eced" d="M172.5 377.5h140v70h-140z"/><path d="M477.5 17.5v270H7.5v-270c0-5.5 4.5-10 10-10h450c5.5 0 10 4.5 10 10z" fill="#31c0d8"/><path d="M477.5 287.5v80c0 5.5-4.5 10-10 10h-450c-5.5 0-10-4.5-10-10v-80h470z" fill="#afb6bb"/><g id="XMLID_42_"><path d="M242.5 312.5c11 0 20 9 20 20s-9 20-20 20-20-9-20-20 9-20 20-20z" fill="#e7eced"/><g fill="#231f20"><path d="M467.5 0h-450C7.851 0 0 7.851 0 17.5v350c0 9.649 7.851 17.5 17.5 17.5H165v55h-12.5c-9.649 0-17.5 7.851-17.5 17.5V485h215v-27.5c0-9.649-7.851-17.5-17.5-17.5H320v-55h147.5c9.649 0 17.5-7.851 17.5-17.5v-350C485 7.851 477.149 0 467.5 0zm-450 15h450c1.355 0 2.5 1.145 2.5 2.5V280H15V17.5c0-1.355 1.145-2.5 2.5-2.5zM335 457.5V470H150v-12.5c0-1.355 1.145-2.5 2.5-2.5h180c1.355 0 2.5 1.145 2.5 2.5zM180 440v-55h125v55H180zm287.5-70h-450c-1.355 0-2.5-1.145-2.5-2.5V295h455v72.5c0 1.355-1.145 2.5-2.5 2.5z"/><path d="M242.5 305c-15.163 0-27.5 12.336-27.5 27.5s12.337 27.5 27.5 27.5 27.5-12.336 27.5-27.5-12.337-27.5-27.5-27.5zm0 40c-6.893 0-12.5-5.607-12.5-12.5s5.607-12.5 12.5-12.5 12.5 5.607 12.5 12.5-5.607 12.5-12.5 12.5z"/></g></g></svg>