<svg version="1.1" id="Layer_1" xmlns="http://www.w3.org/2000/svg" x="0" y="0" viewBox="0 0 280.028 280.028" xml:space="preserve"><path d="M140.014 0c77.331 0 140.014 62.682 140.014 140.014 0 77.323-62.682 140.014-140.014 140.014S0 217.336 0 140.014C0 62.682 62.682 0 140.014 0z" fill="#e4e7e7"/><path d="M140.014 43.746c53.161 0 96.259 43.098 96.259 96.259 0 53.153-43.098 96.259-96.259 96.259s-96.259-43.107-96.259-96.259c-.001-53.162 43.097-96.259 96.259-96.259z" fill="#26a6d1"/><path d="M140.014 87.5c28.992 0 52.505 23.505 52.505 52.505s-23.514 52.505-52.505 52.505-52.505-23.505-52.505-52.505S111.022 87.5 140.014 87.5z" fill="#324d5b"/><path d="M179.393 87.5c12.085 0 21.877 9.792 21.877 21.877s-9.792 21.877-21.877 21.877c-12.085 0-21.877-9.792-21.877-21.877S167.308 87.5 179.393 87.5z" fill="#d4edf6"/><path d="M191.04 127.841c-3.544-14.911-13.406-27.355-26.655-34.312-4.209 3.982-6.869 9.591-6.869 15.848 0 12.085 9.792 21.877 21.877 21.877 4.296 0 8.269-1.278 11.647-3.413z" fill="#d6dbde"/><path d="M148.765 227.513c-53.161 0-96.259-43.107-96.259-96.259 0-24.354 9.118-46.528 24.03-63.479-20.057 17.642-32.781 43.422-32.781 72.23 0 53.153 43.098 96.259 96.259 96.259 28.808 0 54.588-12.724 72.23-32.781-16.96 14.912-39.126 24.03-63.479 24.03z" fill="#2296bd"/></svg>