<svg version="1.1" id="Layer_1" xmlns="http://www.w3.org/2000/svg" x="0" y="0" viewBox="0 0 511.97 511.97" xml:space="preserve"><path d="M3.326 507.564a10.59 10.59 0 010-15.031l105.323-105.339c4.141-4.156 10.891-4.156 15.046 0 4.156 4.172 4.156 10.906 0 15.062L18.356 507.564a10.589 10.589 0 01-15.03 0z" fill="#37bc9b"/><path d="M398.044 183.687c0-2.828-1.125-5.547-3.125-7.531l-60.186-60.185c-4.141-4.172-10.873-4.172-15.029 0L108.649 327.008c-2 2-3.125 4.703-3.125 7.531v60.186a10.64 10.64 0 003.125 7.531 10.661 10.661 0 007.516 3.108h60.185c2.828 0 5.531-1.125 7.531-3.108l211.038-211.069c2-1.984 3.125-4.703 3.125-7.5z" fill="#e6e9ed"/><path d="M105.525 394.725a10.64 10.64 0 003.125 7.531 10.661 10.661 0 007.516 3.108h60.185c2.828 0 5.531-1.125 7.531-3.108l127.884-127.901H161.303l-52.654 52.653c-2 2-3.125 4.703-3.125 7.531v60.186h.001z" fill="#48cfad"/><path d="M495.852 55.786c0-2.828-1.125-5.546-3.125-7.515l-30.093-30.108c-4.155-4.156-10.89-4.156-15.03 0L334.733 131.002c-2 2-3.109 4.703-3.109 7.531s1.109 5.531 3.109 7.531l30.109 30.092c4.155 4.156 10.89 4.156 15.046 0L492.727 63.301c2-1.984 3.125-4.703 3.125-7.515z" fill="#e6e9ed"/><path d="M312.173 123.502c-4.155-4.172-4.155-10.905 0-15.062 4.156-4.141 10.891-4.141 15.046 0l75.231 75.231c4.156 4.156 4.156 10.891 0 15.046-4.156 4.156-10.891 4.156-15.031 0l-75.246-75.215z" fill="#ccd1d9"/><path d="M266.628 319.495l-15.046-15.047c-4.141-4.156-10.891-4.141-15.046 0-4.156 4.156-4.156 10.891 0 15.047l15.046 15.045 15.046-15.045zm-45.139 45.137l-15.046-15.047c-4.156-4.156-10.891-4.156-15.031 0-4.172 4.156-4.172 10.906 0 15.047l15.031 15.046 15.046-15.046zm90.293-90.308l-15.03-15.03a10.624 10.624 0 00-15.047 0 10.618 10.618 0 000 15.03l15.047 15.046 15.03-15.046zm45.123-45.108l-15.047-15.046c-4.156-4.156-10.891-4.156-15.046 0s-4.155 10.905 0 15.046l15.046 15.062 15.047-15.062z" fill="#434a54"/><path d="M432.543 18.163c-4.141-4.156-4.141-10.891 0-15.047 4.156-4.155 10.89-4.155 15.062 0l60.185 60.186c4.141 4.172 4.141 10.891 0 15.046-4.156 4.156-10.905 4.156-15.062 0l-60.185-60.185z" fill="#ccd1d9"/><path d="M344.296 511.97c-5.203 0-14.702-1.828-19.889-14.156-3.047-7.234-4.469-17.733-4.469-33.046 0-41.138 33.467-74.605 74.605-74.605 41.14 0 74.606 33.468 74.606 74.605 0 14.922-1.484 25.171-4.672 32.265-3.937 8.797-11.062 13.641-20.046 13.641-7.202 0-14.624-3.109-22.498-6.391-8.469-3.531-18.078-7.531-27.391-7.531-9.297 0-18.937 4.359-27.436 8.219-7.951 3.609-15.451 6.999-22.81 6.999z" fill="#37bc9b"/><g fill="#48cfad"><path d="M479.806 432.801c-17.938 0-31.983-18.733-31.983-42.639s14.046-42.624 31.983-42.624c17.92 0 31.967 18.719 31.967 42.624s-14.047 42.639-31.967 42.639z"/><path d="M426.511 390.163c-17.921 0-31.968-18.718-31.968-42.624 0-23.905 14.047-42.638 31.968-42.638 17.937 0 31.968 18.732 31.968 42.638s-14.031 42.624-31.968 42.624z"/><path d="M362.561 390.163c-17.922 0-31.969-18.718-31.969-42.624 0-23.905 14.047-42.638 31.969-42.638 17.937 0 31.982 18.732 31.982 42.638.001 23.906-14.045 42.624-31.982 42.624z"/><path d="M309.283 432.801c-17.938 0-31.984-18.733-31.984-42.639s14.047-42.624 31.984-42.624c17.92 0 31.966 18.719 31.966 42.624s-14.046 42.639-31.966 42.639z"/></g></svg>