<svg version="1.1" id="Layer_1" xmlns="http://www.w3.org/2000/svg" x="0" y="0" viewBox="0 0 512 512" xml:space="preserve"><path d="M421.067 463.618L315.914 169.68V8.987H271.25L249.463 169.68l98.043 334.967h44.664c23.966 0 36.969-18.463 28.897-41.029z" fill="#82c8db"/><path d="M376.403 463.618l-.911-2.547-53.004-80.274.394-66.79-51.631-144.327V8.987h-75.166V169.68L90.932 463.618c-8.072 22.566 4.932 41.029 28.897 41.029h227.677c23.966 0 36.97-18.463 28.897-41.029z" fill="#a3dde9"/><path fill="#419ebe" d="M307.27 314.009H191.296l-52.611 147.063h200.152v-54.468z"/><path fill="#146a8a" d="M322.882 314.009h-27.595l31.567 147.063h48.639z"/><path d="M360.768 399.357a8.166 8.166 0 00-10.445-4.94 8.169 8.169 0 00-4.94 10.445l16.893 47.224-212.554-.001 46.764-130.722h119.026l18.862 52.728a8.168 8.168 0 0010.445 4.94 8.169 8.169 0 004.94-10.445l-20.8-58.146a8.17 8.17 0 00-7.693-5.418H190.732a8.17 8.17 0 00-7.693 5.418l-52.61 147.062a8.172 8.172 0 007.693 10.922l235.754.002a8.172 8.172 0 007.693-10.922l-20.801-58.147z"/><path d="M428.759 460.049L324.085 167.446V16.34h13.617a8.17 8.17 0 000-16.34H174.297a8.17 8.17 0 000 16.34h13.617v151.105L83.24 460.049c-4.755 13.292-3.498 26.572 3.448 36.433C93.632 506.344 105.712 512 119.829 512h272.34c14.117 0 26.197-5.656 33.143-15.518 6.946-9.861 8.203-23.14 3.447-36.433zm-16.805 27.024c-3.9 5.537-10.926 8.586-19.784 8.586H119.83c-8.858 0-15.884-3.049-19.784-8.586-3.9-5.537-4.404-13.179-1.422-21.519l105.153-293.938a8.167 8.167 0 00.477-2.752V16.34h103.489v152.523c0 .938.161 1.868.477 2.752l105.153 293.938c2.985 8.341 2.481 15.983-1.419 21.52z"/></svg>