<svg version="1.1" id="Layer_1" xmlns="http://www.w3.org/2000/svg" x="0" y="0" viewBox="0 0 512.002 512.002" xml:space="preserve"><path d="M271.534 345.285l-67.962-88.513c-7.846-10.22-23.272-10.219-31.117-.001l-34.482 44.911c-41.943-11.566-86.601 2.329-113.896 37.883-35.987 46.868-27.14 114.271 19.722 150.254 46.868 35.981 114.128 27.339 150.261-19.744.012-.014.021-.029.033-.044l77.438-100.853a19.614 19.614 0 00.003-23.893zM137.826 454.656c-44.609 25.741-97.645-15.154-84.357-64.692 10.765-40.134 58.433-55.617 90.684-30.895 31.65 24.261 30.517 74.326-6.327 95.587z" fill="#48aee2"/><path d="M323.923 288.332a19.614 19.614 0 01-15.559-7.671l-67.948-88.515a19.614 19.614 0 010-23.89L363.695 7.671C370.275-.9 382.59-2.554 391.2 4.056c27.006 20.735 44.317 50.738 48.745 84.484 8.84 67.125-30.953 101.579-100.465 192.12a19.608 19.608 0 01-15.557 7.672z" fill="#39a3db"/><path d="M487.862 339.567c-27.122-35.333-72.235-49.768-113.942-37.945-84.729-110.357-45.952-59.862-225.68-293.951-6.592-8.587-18.914-10.212-27.504-3.613-55.746 42.8-66.479 122.645-23.461 178.68L317.268 469.28c.089.115.191.212.281.326 35.93 47.336 103.544 56.333 150.578 20.212 46.968-36.063 55.807-103.272 19.735-150.251zM403.129 462.58c-32.161.003-62.308-27.989-57.408-65.272 8.184-62.334 96.459-68.059 112.745-7.343 10.44 38.922-20.125 72.613-55.337 72.615z" fill="#74b8e5"/><path d="M487.862 339.567c-27.122-35.333-72.235-49.768-113.942-37.945-60.788-79.176-58.008-75.559-117.953-153.639v241.453l61.301 79.844c.089.115.191.213.281.326 35.93 47.337 103.544 56.333 150.578 20.214 46.968-36.065 55.807-103.274 19.735-150.253zM403.129 462.58c-32.161.003-62.308-27.989-57.408-65.272 8.184-62.334 96.459-68.059 112.745-7.343 10.44 38.922-20.125 72.613-55.337 72.615z" fill="#48aee2"/></svg>